<svg width="24" height="24" viewBox="0 0 24 24" fill="none" xmlns="http://www.w3.org/2000/svg">
<path d="M17.248 7.37061H6.75249C5.9028 7.37061 5.21399 8.05942 5.21399 8.90911V12.8306C5.21399 13.6803 5.9028 14.3691 6.75249 14.3691H17.248C18.0977 14.3691 18.7865 13.6803 18.7865 12.8306V8.90911C18.7865 8.05942 18.0977 7.37061 17.248 7.37061Z" stroke="#050505" stroke-linecap="round" stroke-linejoin="round"/>
<path d="M17.559 4.6499C17.7121 4.64984 17.8637 4.67994 18.0051 4.73849C18.1465 4.79704 18.275 4.88288 18.3833 4.99112C18.4915 5.09936 18.5774 5.22787 18.6359 5.36931C18.6945 5.51074 18.7246 5.66233 18.7245 5.8154V6.0304C18.7245 6.5237 18.9205 6.9968 19.2693 7.34562C19.6181 7.69444 20.0912 7.8904 20.5845 7.8904C20.7376 7.89034 20.8892 7.92044 21.0306 7.97899C21.172 8.03754 21.3005 8.12338 21.4088 8.23162C21.517 8.33986 21.6029 8.46837 21.6614 8.60981C21.72 8.75124 21.7501 8.90283 21.75 9.0559V12.6349C21.7501 12.7879 21.72 12.9395 21.6615 13.0809C21.6029 13.2223 21.5171 13.3508 21.409 13.459C21.3008 13.5672 21.1723 13.6531 21.0309 13.7117C20.8896 13.7703 20.738 13.8004 20.585 13.8004C20.0917 13.8004 19.6186 13.9964 19.2698 14.3452C18.921 14.694 18.725 15.1671 18.725 15.6604V15.8754C18.7251 16.0285 18.6949 16.1801 18.6364 16.3216C18.5778 16.4631 18.4919 16.5916 18.3836 16.6999C18.2753 16.8081 18.1467 16.8939 18.0052 16.9525C17.8638 17.011 17.7121 17.041 17.559 17.0409H8.199L6.5025 19.0969C6.089 19.5979 5.2755 19.3054 5.2755 18.6559V15.6609C5.2755 15.4166 5.22739 15.1748 5.13392 14.9491C5.04044 14.7234 4.90344 14.5184 4.73072 14.3457C4.558 14.173 4.35296 14.036 4.12729 13.9425C3.90163 13.849 3.65976 13.8009 3.4155 13.8009C3.26238 13.801 3.11076 13.7709 2.96929 13.7123C2.82782 13.6537 2.69929 13.5678 2.59104 13.4595C2.4828 13.3512 2.39696 13.2226 2.33844 13.0812C2.27992 12.9397 2.24987 12.788 2.25 12.6349V9.0559C2.24993 8.90287 2.28002 8.75132 2.33854 8.60992C2.39705 8.46852 2.48286 8.34003 2.59104 8.2318C2.69923 8.12357 2.82768 8.03771 2.96906 7.97913C3.11044 7.92055 3.26197 7.8904 3.415 7.8904C3.9083 7.8904 4.3814 7.69444 4.73022 7.34562C5.07904 6.9968 5.275 6.5237 5.275 6.0304V5.8154C5.275 5.66233 5.30517 5.51075 5.36378 5.36935C5.42239 5.22794 5.50829 5.09946 5.61657 4.99127C5.72486 4.88308 5.85341 4.79728 5.99487 4.7388C6.13633 4.68031 6.28793 4.65027 6.441 4.6504L17.559 4.6499Z" stroke="#050505" stroke-linecap="round" stroke-linejoin="round"/>
<path d="M7.84851 10.0349C7.84851 9.70642 7.979 9.3914 8.21126 9.15913C8.44352 8.92687 8.75854 8.79639 9.08701 8.79639C9.41548 8.79639 9.7305 8.92687 9.96276 9.15913C10.195 9.3914 10.3255 9.70642 10.3255 10.0349V11.4479C10.3255 11.7764 10.195 12.0914 9.96276 12.3236C9.7305 12.5559 9.41548 12.6864 9.08701 12.6864C8.75854 12.6864 8.44352 12.5559 8.21126 12.3236C7.979 12.0914 7.84851 11.7764 7.84851 11.4479V10.0349ZM13.6745 10.0349C13.6745 9.70642 13.805 9.3914 14.0373 9.15913C14.2695 8.92687 14.5845 8.79639 14.913 8.79639C15.2415 8.79639 15.5565 8.92687 15.7888 9.15913C16.021 9.3914 16.1515 9.70642 16.1515 10.0349V11.4479C16.1515 11.7764 16.021 12.0914 15.7888 12.3236C15.5565 12.5559 15.2415 12.6864 14.913 12.6864C14.5845 12.6864 14.2695 12.5559 14.0373 12.3236C13.805 12.0914 13.6745 11.7764 13.6745 11.4479V10.0349Z" stroke="#050505" stroke-linecap="round" stroke-linejoin="round"/>
</svg>
