<svg width="74" height="24" viewBox="0 0 74 24" fill="none" xmlns="http://www.w3.org/2000/svg">
<path d="M4.688 23.884C3.728 23.884 2.91733 23.4893 2.256 22.7C1.616 21.8893 1.296 20.8973 1.296 19.724C1.296 18.5507 1.44533 16.4813 1.744 13.516C2.04267 10.5507 2.192 8.43867 2.192 7.18C2.192 5.92133 2.05333 4.94 1.776 4.236L0.464 1.804L0.592 1.324C2.32 0.961332 4.464 0.779999 7.024 0.779999C7.23733 1.59067 7.344 2.83867 7.344 4.524C7.344 6.20933 7.13067 8.66267 6.704 11.884C6.29867 15.084 6.096 17.2173 6.096 18.284C6.096 19.3293 6.42667 19.852 7.088 19.852C7.74933 19.852 8.592 19.2867 9.616 18.156C10.6613 17.0253 11.6533 15.5427 12.592 13.708C13.5307 11.852 14.1067 10.0707 14.32 8.364L10.928 6.38C11.0987 4.75867 11.4933 3.468 12.112 2.508C12.6667 1.65467 13.1253 1.11067 13.488 0.875999L13.712 0.716C15.0133 0.716 15.9947 1.05733 16.656 1.74C17.3387 2.42267 17.68 3.23333 17.68 4.172C17.68 6.49733 16.9867 9.21733 15.6 12.332C14.2133 15.4467 12.4853 18.156 10.416 20.46C8.34667 22.7427 6.43733 23.884 4.688 23.884ZM24.0215 11.308C24.0215 12.204 23.7335 13.7507 23.1575 15.948C22.5815 18.124 22.2935 19.5533 22.2935 20.236C22.2935 20.8973 22.3895 21.228 22.5815 21.228C22.7095 21.228 23.2002 21.0253 24.0535 20.62L24.4375 20.428L24.9815 21.548C24.7895 21.7187 24.5335 21.932 24.2135 22.188C23.8935 22.444 23.2962 22.796 22.4215 23.244C21.5468 23.6707 20.7362 23.884 19.9895 23.884C19.2428 23.884 18.6562 23.66 18.2295 23.212C17.8028 22.7427 17.5895 22.124 17.5895 21.356C17.5895 20.5667 17.8562 19.18 18.3895 17.196C18.9228 15.1907 19.1895 13.8893 19.1895 13.292C19.1895 12.396 18.9122 11.5533 18.3575 10.764L18.0695 10.38L18.1015 9.964C19.2322 9.644 21.0668 9.484 23.6055 9.484C23.8828 9.804 24.0215 10.412 24.0215 11.308ZM20.3735 5.996C19.9468 5.56933 19.7335 5.004 19.7335 4.3C19.7335 3.596 20.0215 2.97733 20.5975 2.444C21.1948 1.91067 21.8775 1.644 22.6455 1.644C23.4135 1.644 24.0108 1.85733 24.4375 2.284C24.8642 2.71067 25.0775 3.276 25.0775 3.98C25.0775 4.66267 24.7682 5.27067 24.1495 5.804C23.5522 6.33733 22.8802 6.604 22.1335 6.604C21.3868 6.604 20.8002 6.40133 20.3735 5.996ZM33.4763 10.924C32.6229 10.924 31.9403 11.6387 31.4283 13.068C30.9163 14.476 30.6603 15.9907 30.6603 17.612C30.6603 20.172 31.4496 21.452 33.0283 21.452C33.5403 21.452 34.0843 21.3347 34.6603 21.1C35.2363 20.844 35.6949 20.5987 36.0363 20.364L36.5163 19.98L37.2523 20.972C37.0816 21.2067 36.7403 21.516 36.2283 21.9C35.7163 22.284 35.2363 22.604 34.7883 22.86C34.3403 23.116 33.7643 23.3507 33.0603 23.564C32.3563 23.7773 31.6629 23.884 30.9803 23.884C29.3163 23.884 28.0683 23.34 27.2363 22.252C26.4043 21.164 25.9883 19.7027 25.9883 17.868C25.9883 15.3293 26.6816 13.2707 28.0683 11.692C29.4763 10.1133 31.2789 9.324 33.4763 9.324C34.9056 9.324 36.0363 9.65467 36.8683 10.316C37.7216 10.956 38.1483 11.756 38.1483 12.716C38.1483 13.6547 37.8496 14.4653 37.2523 15.148C36.7189 15.148 36.1003 15.0307 35.3963 14.796C34.6923 14.5613 34.1589 14.2733 33.7963 13.932L34.2763 11.116C34.0843 10.988 33.8176 10.924 33.4763 10.924ZM48.851 9.708C48.8083 10.2413 48.627 10.86 48.307 11.564C47.4963 11.4787 46.7283 11.436 46.003 11.436H45.427C44.4457 16.1933 43.955 19.1587 43.955 20.332C43.955 20.9507 44.083 21.26 44.339 21.26C44.6163 21.26 45.331 20.9933 46.483 20.46L47.059 21.516C45.1603 23.0947 43.4003 23.884 41.779 23.884C41.0323 23.884 40.4137 23.6493 39.923 23.18C39.4537 22.7107 39.219 22.092 39.219 21.324C39.219 20.5347 39.3043 19.6493 39.475 18.668C39.667 17.6867 39.923 16.492 40.243 15.084C40.563 13.6547 40.7977 12.5027 40.947 11.628C40.1577 11.692 39.571 11.756 39.187 11.82C39.1443 11.564 39.123 11.2227 39.123 10.796C39.123 10.348 39.155 9.98533 39.219 9.708H41.235C41.4057 8.556 41.491 7.468 41.491 6.444L41.459 5.452V5.356C43.123 4.78 44.691 4.492 46.163 4.492C46.2483 4.91867 46.291 5.452 46.291 6.092C46.291 6.732 46.1097 7.93733 45.747 9.708H48.851ZM52.8463 23.884C51.3743 23.884 50.2223 23.372 49.3903 22.348C48.5583 21.3027 48.1423 19.852 48.1423 17.996C48.1423 15.628 48.7716 13.5907 50.0303 11.884C51.3103 10.1773 53.0703 9.324 55.3103 9.324L56.4623 9.388C56.8249 9.196 57.2303 9.1 57.6783 9.1C59.3636 9.1 60.2063 10.6893 60.2063 13.868C61.0809 13.8253 61.9663 13.708 62.8623 13.516L63.3743 13.388L63.5662 14.636C62.8623 14.9347 61.9129 15.2013 60.7183 15.436L60.0783 15.564C59.6729 17.804 58.8516 19.756 57.6143 21.42C56.3769 23.0627 54.7876 23.884 52.8463 23.884ZM54.5743 21.132C55.4703 21.132 56.2703 20.556 56.9743 19.404C57.6996 18.252 58.2009 17.036 58.4783 15.756C56.1956 15.756 55.0543 14.9027 55.0543 13.196C55.0543 12.5133 55.1929 11.8733 55.4703 11.276L55.6302 10.956C55.5449 10.9133 55.4383 10.892 55.3103 10.892C55.1823 10.892 55.0863 10.9133 55.0223 10.956C54.4889 11.2973 53.9876 12.0973 53.5183 13.356C53.0489 14.6147 52.8143 16.0547 52.8143 17.676C52.8143 19.98 53.4009 21.132 54.5743 21.132ZM61.6625 23.596H61.4385C61.3958 23.4253 61.3745 23.0413 61.3745 22.444C61.3745 21.8253 61.6625 20.1827 62.2385 17.516C62.8145 14.8493 63.1025 13.324 63.1025 12.94C63.1025 12.2787 62.8038 11.5533 62.2065 10.764L61.9185 10.38L61.9505 9.964C63.1025 9.644 64.9478 9.484 67.4865 9.484C67.7425 10.0387 67.8705 10.8173 67.8705 11.82C68.1052 11.436 68.5958 10.924 69.3425 10.284C70.0892 9.644 70.8572 9.324 71.6465 9.324C72.7985 9.324 73.3745 10.3267 73.3745 12.332C73.2678 12.46 73.1185 12.6307 72.9265 12.844C72.7558 13.036 72.3932 13.3133 71.8385 13.676C71.3052 14.0387 70.7825 14.2627 70.2705 14.348C70.2492 14.348 70.0678 14.06 69.7265 13.484C69.3852 12.908 69.1292 12.62 68.9585 12.62C68.4252 12.812 67.9558 13.132 67.5505 13.58C66.5692 17.996 66.0785 20.8547 66.0785 22.156C66.0785 22.6253 66.0892 22.956 66.1105 23.148C65.3638 23.4467 63.8812 23.596 61.6625 23.596Z" fill="white"/>
</svg>
